<svg xmlns="http://www.w3.org/2000/svg" xmlns:xlink="http://www.w3.org/1999/xlink" version="1.1" x="0px" y="0px" viewBox="0 0 85.108 282.72875" style="enable-background:new 0 0 85.108 226.183;" xml:space="preserve"><g><path d="M9.978,90.508v18.372v18.939v86.001c0,6.83,5.535,12.363,12.363,12.363s12.363-5.533,12.363-12.363v-78.272h5.035   l16.355,80.682c1.357,6.693,7.882,11.018,14.574,9.66c6.691-1.357,11.018-7.879,9.66-14.572l-15.622-77.063   c0.532,0.109,1.069,0.172,1.603,0.172c2.945,0,5.779-1.632,7.175-4.449c8.277-16.723,11.61-30.069,11.623-41.054   c0.01-7.297-1.528-13.523-4.009-18.549c-3.723-7.579-9.379-12.21-13.959-14.828c-3.98-2.279-7.224-3.179-8.4-3.464   c-0.755-0.246-1.561-0.384-2.399-0.384h-10.51c-4.315,9.668-8.327,17.358-12.229,23.405C29.85,80.87,22.012,90.525,9.978,90.508z    M69.108,88.925c0.011,5.647-1.314,13.167-5.04,22.833V73.43C66.715,76.498,69.041,80.882,69.108,88.925z"/><path d="M37.571,35.673c1.384,0,2.731,0.283,4.006,0.842c2.447,1.071,4.329,3.03,5.304,5.518c0.076,0.194,0.134,0.392,0.197,0.589   c5.778-2.892,10.275-8.236,11.854-15.02c2.818-12.1-4.707-24.193-16.806-27.01c-12.1-2.817-24.194,4.707-27.012,16.807   c-2.482,10.662,3.067,21.314,12.699,25.625c0.198-0.451,0.396-0.903,0.595-1.356C30.001,38.025,33.598,35.673,37.571,35.673z"/><path d="M5.657,87.458c0.28,0.211,0.571,0.411,0.885,0.587c0.01,0.006,0.022,0.009,0.032,0.015   c0.242,0.135,0.489,0.248,0.739,0.352c0.201,0.093,0.39,0.202,0.599,0.285c0.657,0.261,1.356,0.448,2.066,0.59   c0.738,0.147,1.489,0.249,2.241,0.249c0.023,0,0.044,0,0.066,0c3.272-0.012,6.147-1.258,8.633-2.99   c3.746-2.653,7.12-6.561,11.003-12.526c3.519-5.454,7.385-12.676,11.723-22.32c0.414-0.92,0.83-1.853,1.252-2.816   c0.782-1.789,0.856-3.708,0.349-5.446c-0.642-2.195-2.212-4.102-4.471-5.09c-4.046-1.771-8.764,0.074-10.534,4.12   c-0.193,0.442-0.382,0.862-0.572,1.292c-1.276,2.882-2.505,5.531-3.678,7.94c-0.956,1.963-1.875,3.768-2.758,5.434   c-3.017,5.692-5.6,9.714-7.669,12.35c-1.543,1.986-2.792,3.173-3.529,3.742c-0.074-0.015-0.148-0.014-0.223-0.026   c2.612-2.551,6.379-9.439,10.461-18.013c0.541-1.135,1.087-2.299,1.636-3.487h-6.203c-0.318,0-0.631,0.025-0.939,0.063   c-0.365-0.051-0.735-0.087-1.114-0.087c-3.505-0.025-6.621,1.589-8.588,3.42c-3.009,2.801-4.451,5.971-5.523,9.157   C0.517,67.457,0.01,70.75,0,74.013c0.012,2.28,0.235,4.533,0.999,6.902C1.701,82.985,2.906,85.519,5.657,87.458z"/></g></svg>